<svg width="181" height="169" fill="none" xmlns="http://www.w3.org/2000/svg"><path fill-rule="evenodd" clip-rule="evenodd" d="M2.772 107.616c-3.973-16.768-4.117-34.673 2.489-50.587C11.6 41.755 25.329 31.57 38.492 21.56 51.181 11.913 64.248 1.374 80.135.1 95.793-1.158 109 9.84 123.936 14.703c17.886 5.824 42.063 1.269 52.672 16.806 10.512 15.394-1.705 36.139-3.876 54.653-1.944 16.574.155 33.915-8.203 48.356-8.651 14.946-22.191 27.893-38.754 32.773-15.948 4.699-31.906-4.654-48.352-7.107-16.843-2.511-35.566 2.322-49.492-7.484-14.36-10.113-21.109-27.992-25.159-45.085z" fill="#fff"/><path d="M71.827 117.743c.167-6.5 4.3-19.5 19.5-19.5s19.333 13 19.5 19.5" stroke="#000" stroke-width="3" stroke-linecap="round"/><path d="M68.832 90.727c-1.21.182-2.317.086-3.32-.288a5.68 5.68 0 01-2.499-1.844c-.654-.848-1.072-1.877-1.255-3.087l-.83-5.506c-.183-1.21-.087-2.317.287-3.32a5.596 5.596 0 011.846-2.487c.847-.662 1.875-1.084 3.085-1.267 1.21-.183 2.314-.082 3.31.302a5.596 5.596 0 012.498 1.831c.662.847 1.084 1.876 1.266 3.086l.831 5.506c.183 1.21.083 2.317-.3 3.322a5.68 5.68 0 01-1.843 2.499c-.84.652-1.865 1.07-3.076 1.252zm-.41-2.718a3.239 3.239 0 001.573-.674 3.32 3.32 0 00.987-1.338 3.234 3.234 0 00.18-1.702l-.893-5.921a3.196 3.196 0 00-.674-1.573 3.19 3.19 0 00-1.338-.988 3.17 3.17 0 00-1.704-.192 3.17 3.17 0 00-1.571.687 3.19 3.19 0 00-.988 1.338 3.196 3.196 0 00-.18 1.702l.894 5.92a3.23 3.23 0 00.674 1.574c.358.44.804.769 1.338.987.534.21 1.1.271 1.702.18z" fill="#000"/><path d="M65.138 88.897l4.832-14.888" stroke="#000" stroke-width="3"/><path d="M115.005 92.996c-1.183-.317-2.159-.848-2.928-1.593a5.678 5.678 0 01-1.553-2.69c-.26-1.038-.232-2.148.085-3.33l1.441-5.379c.317-1.182.848-2.158 1.592-2.928a5.6 5.6 0 012.687-1.54c1.041-.269 2.152-.244 3.334.073 1.183.317 2.154.85 2.913 1.6a5.587 5.587 0 011.556 2.678c.268 1.041.244 2.153-.073 3.335l-1.441 5.378c-.317 1.182-.852 2.157-1.604 2.925a5.68 5.68 0 01-2.689 1.552c-1.031.263-2.138.235-3.32-.081zm.711-2.655a3.235 3.235 0 001.711.011 3.316 3.316 0 001.441-.831c.406-.405.688-.9.845-1.488l1.55-5.784a3.2 3.2 0 00.012-1.711 3.187 3.187 0 00-.832-1.44 3.165 3.165 0 00-1.485-.858 3.167 3.167 0 00-1.714 0 3.184 3.184 0 00-1.44.832 3.189 3.189 0 00-.846 1.488l-1.55 5.784a3.239 3.239 0 00-.011 1.71c.151.547.429 1.027.831 1.441.405.407.901.689 1.488.846z" fill="#000"/><path d="M112.35 89.841l10.385-11.71" stroke="#000" stroke-width="3"/></svg>