<svg width="95" height="19" fill="none" xmlns="http://www.w3.org/2000/svg"><path fill-rule="evenodd" clip-rule="evenodd" d="M.68.72V18h2.892v-7.296h8.184V18h2.88V.72h-2.88v7.272H3.572V.72H.68zm18.568 17.112c.648.352 1.44.528 2.376.528 1.168 0 2.14-.216 2.916-.648.604-.338 1.148-.824 1.632-1.456V18h2.532v-7.956c0-.56-.024-1.076-.072-1.548a3.942 3.942 0 00-.42-1.404 3.77 3.77 0 00-1.956-1.848c-.872-.376-1.884-.564-3.036-.564-1.528 0-2.744.332-3.648.996-.896.664-1.504 1.544-1.824 2.64l2.64.828c.216-.664.596-1.132 1.14-1.404a3.739 3.739 0 011.692-.408c.968 0 1.656.212 2.064.636.34.353.536.87.587 1.55l-1.535.226c-.816.112-1.576.236-2.28.372-.696.136-1.304.288-1.824.456-.688.232-1.248.532-1.68.9-.432.36-.752.792-.96 1.296-.208.496-.312 1.056-.312 1.68 0 .712.164 1.364.492 1.956.336.592.828 1.068 1.476 1.428zm4.632-2.124c-.464.232-1.024.348-1.68.348-.456 0-.84-.072-1.152-.216a1.67 1.67 0 01-.696-.576 1.537 1.537 0 01-.24-.852c0-.28.06-.524.18-.732a1.86 1.86 0 01.54-.552c.232-.16.516-.3.852-.42.344-.112.74-.212 1.188-.3.448-.096.984-.196 1.608-.3.4-.067.85-.14 1.35-.22-.005.221-.015.474-.03.76-.016.472-.1.892-.252 1.26-.096.296-.284.612-.564.948-.272.336-.64.62-1.104.852zm10.156 1.764c.944.592 2.084.888 3.42.888 1.448 0 2.672-.352 3.672-1.056 1-.712 1.7-1.728 2.1-3.048l-2.952-.66c-.224.664-.56 1.172-1.008 1.524-.44.352-1.044.528-1.812.528-1.088 0-1.908-.38-2.46-1.14-.552-.76-.828-1.756-.828-2.988 0-.792.116-1.5.348-2.124.232-.624.592-1.112 1.08-1.464.488-.36 1.108-.54 1.86-.54.664 0 1.256.196 1.776.588.52.384.892.924 1.116 1.62l2.88-.78c-.312-1.28-.98-2.288-2.004-3.024-1.016-.744-2.26-1.116-3.732-1.116-1.312 0-2.444.296-3.396.888a5.886 5.886 0 00-2.208 2.424c-.512 1.024-.772 2.2-.78 3.528.008 1.304.26 2.472.756 3.504a5.912 5.912 0 002.172 2.448zM48.561.72h-2.928L45.61 18h2.952v-6.24L53.517 18h3.828l-5.46-6.48 5.028-6.48h-3.612l-4.74 6.24V.72zm12.962 16.86c.936.52 2.016.78 3.24.78 1.224 0 2.3-.26 3.228-.78a5.68 5.68 0 002.196-2.196c.528-.936.792-2.016.792-3.24V6.576c0-1.224-.264-2.304-.792-3.24a5.597 5.597 0 00-2.196-2.184C67.063.624 65.987.36 64.763.36c-1.224 0-2.304.264-3.24.792a5.597 5.597 0 00-2.196 2.184c-.52.936-.78 2.016-.78 3.24v5.568c0 1.224.26 2.304.78 3.24a5.68 5.68 0 002.196 2.196zm4.896-2.4a3.238 3.238 0 01-1.656.432c-.608 0-1.16-.144-1.656-.432l-.015-.01 4.833-9.665c.068.27.102.555.102.855v5.988c0 .608-.144 1.16-.432 1.656-.288.488-.68.88-1.176 1.176zm-.705-11.962l-4.215 8.43V6.36c0-.616.144-1.168.432-1.656a3.19 3.19 0 011.176-1.176 3.17 3.17 0 011.656-.444c.334 0 .651.045.951.134zM76.9 5.04h-2.556V18h2.904v-6.588c0-.496.06-.956.18-1.38.12-.432.304-.816.552-1.152.256-.336.584-.612.984-.828.4-.24.848-.38 1.344-.42.504-.04.948-.004 1.332.108v-2.7a4.88 4.88 0 00-1.188-.048c-.408.024-.808.1-1.2.228-.384.12-.736.288-1.056.504a3.54 3.54 0 00-.972.888 4.464 4.464 0 00-.324.498V5.04zm7.973 12.792c.648.352 1.44.528 2.376.528 1.168 0 2.14-.216 2.916-.648.603-.338 1.147-.824 1.632-1.456V18h2.532v-7.956c0-.56-.024-1.076-.072-1.548a3.942 3.942 0 00-.42-1.404 3.77 3.77 0 00-1.956-1.848c-.872-.376-1.884-.564-3.036-.564-1.528 0-2.744.332-3.648.996-.896.664-1.504 1.544-1.824 2.64l2.64.828c.216-.664.596-1.132 1.14-1.404a3.739 3.739 0 011.692-.408c.968 0 1.656.212 2.064.636.34.353.535.87.587 1.55l-1.535.226c-.816.112-1.576.236-2.28.372-.696.136-1.304.288-1.824.456-.688.232-1.248.532-1.68.9-.432.36-.752.792-.96 1.296-.208.496-.312 1.056-.312 1.68 0 .712.164 1.364.492 1.956.336.592.828 1.068 1.476 1.428zm4.632-2.124c-.464.232-1.024.348-1.68.348-.456 0-.84-.072-1.152-.216a1.67 1.67 0 01-.696-.576 1.537 1.537 0 01-.24-.852c0-.28.06-.524.18-.732a1.86 1.86 0 01.54-.552c.232-.16.516-.3.852-.42.344-.112.74-.212 1.188-.3.448-.096.984-.196 1.608-.3.4-.067.85-.14 1.35-.22-.005.221-.015.474-.03.76-.016.472-.1.892-.252 1.26-.096.296-.284.612-.564.948-.272.336-.64.62-1.104.852z" fill="#fff"/></svg>