<svg width="117" height="33" fill="none" xmlns="http://www.w3.org/2000/svg"><path d="M10.932 28.52c-1.328 0-2.544-.216-3.648-.648a8.406 8.406 0 01-2.856-1.812 8.15 8.15 0 01-1.86-2.748c-.432-1.056-.648-2.208-.648-3.456 0-1.552.232-2.912.696-4.08.472-1.168 1.12-2.14 1.944-2.916a8.11 8.11 0 012.856-1.752 9.946 9.946 0 013.42-.588c1.528 0 2.868.232 4.02.696 1.152.464 2.112 1.1 2.88 1.908.768.8 1.34 1.716 1.716 2.748a8.92 8.92 0 01.552 3.264c-.024 1.568-.332 2.784-.924 3.648-.592.864-1.568 1.296-2.928 1.296a4.02 4.02 0 01-1.86-.456c-.584-.304-.988-.748-1.212-1.332l.756.012c-.344.632-.804 1.076-1.38 1.332a4.421 4.421 0 01-1.764.372c-.848 0-1.596-.184-2.244-.552a4.11 4.11 0 01-1.536-1.56c-.368-.664-.552-1.436-.552-2.316 0-.904.192-1.688.576-2.352a4.058 4.058 0 011.584-1.536c.664-.36 1.404-.54 2.22-.54.52 0 1.064.108 1.632.324.568.208 1.008.492 1.32.852l-.492.648v-1.488h1.776l-.036 4.524c0 .616.108 1.068.324 1.356.216.28.52.42.912.42.416 0 .72-.116.912-.348.192-.232.316-.544.372-.936.064-.392.1-.836.108-1.332.016-1.256-.184-2.292-.6-3.108-.408-.824-.944-1.476-1.608-1.956a6.39 6.39 0 00-2.148-1.02c-.76-.2-1.484-.3-2.172-.3-1.08 0-2.044.168-2.892.504-.84.328-1.548.8-2.124 1.416a5.975 5.975 0 00-1.296 2.208c-.288.856-.416 1.812-.384 2.868.032 1.024.212 1.936.54 2.736.328.8.788 1.48 1.38 2.04a6.006 6.006 0 002.088 1.26c.808.288 1.704.432 2.688.432.496 0 .988-.048 1.476-.144a7.12 7.12 0 001.38-.408l.756 2.136a9.616 9.616 0 01-1.812.504c-.624.12-1.26.18-1.908.18zm-.072-6.804c.544 0 1.004-.156 1.38-.468.384-.312.576-.868.576-1.668 0-.704-.16-1.236-.48-1.596-.32-.368-.784-.552-1.392-.552-.728 0-1.272.196-1.632.588-.352.384-.528.904-.528 1.56 0 .664.18 1.188.54 1.572.368.376.88.564 1.536.564zM32.558 26v-6.24c0-.408-.028-.86-.084-1.356a4.687 4.687 0 00-.396-1.428 2.707 2.707 0 00-.912-1.14c-.4-.296-.944-.444-1.632-.444-.368 0-.732.06-1.092.18-.36.12-.688.328-.984.624-.288.288-.52.688-.696 1.2-.176.504-.264 1.152-.264 1.944l-1.716-.732c0-1.104.212-2.104.636-3a5.105 5.105 0 011.896-2.136c.832-.536 1.856-.804 3.072-.804.96 0 1.752.16 2.376.48.624.32 1.12.728 1.488 1.224.368.496.64 1.024.816 1.584.176.56.288 1.092.336 1.596.056.496.084.9.084 1.212V26h-2.928zm-8.988 0V8.72h2.58v9.096h.348V26H23.57zm18.672.36c-.936 0-1.728-.176-2.377-.528-.648-.36-1.14-.836-1.476-1.428a3.968 3.968 0 01-.492-1.956c0-.624.105-1.184.313-1.68.207-.504.527-.936.96-1.296.431-.368.991-.668 1.68-.9.52-.168 1.127-.32 1.823-.456a42.76 42.76 0 012.28-.372c.825-.12 1.684-.248 2.58-.384l-1.032.588c.009-.896-.191-1.556-.6-1.98-.408-.424-1.096-.636-2.064-.636-.584 0-1.148.136-1.692.408-.544.272-.924.74-1.14 1.404l-2.64-.828c.32-1.096.928-1.976 1.825-2.64.904-.664 2.12-.996 3.648-.996 1.151 0 2.163.188 3.035.564a3.77 3.77 0 011.957 1.848c.232.456.372.924.42 1.404.047.472.072.988.072 1.548V26h-2.533v-2.808l.42.456c-.584.936-1.268 1.624-2.052 2.064-.775.432-1.747.648-2.915.648zm.576-2.304c.656 0 1.215-.116 1.68-.348.464-.232.832-.516 1.104-.852.28-.336.468-.652.564-.948.152-.368.236-.788.252-1.26.023-.48.035-.868.035-1.164l.889.264c-.873.136-1.62.256-2.245.36a36.58 36.58 0 00-1.608.3c-.447.088-.843.188-1.188.3-.336.12-.62.26-.852.42a1.86 1.86 0 00-.54.552 1.44 1.44 0 00-.18.732c0 .32.08.604.24.852.16.24.392.432.697.576.312.144.696.216 1.152.216zm15.256 2.304c-1.336 0-2.476-.296-3.42-.888a5.912 5.912 0 01-2.172-2.448c-.496-1.032-.748-2.2-.756-3.504.008-1.328.268-2.504.78-3.528a5.886 5.886 0 012.208-2.424c.952-.592 2.084-.888 3.396-.888 1.472 0 2.716.372 3.732 1.116 1.024.736 1.692 1.744 2.004 3.024l-2.88.78c-.224-.696-.596-1.236-1.116-1.62a2.873 2.873 0 00-1.776-.588c-.752 0-1.372.18-1.86.54-.488.352-.848.84-1.08 1.464-.232.624-.348 1.332-.348 2.124 0 1.232.276 2.228.828 2.988.552.76 1.372 1.14 2.46 1.14.768 0 1.372-.176 1.812-.528.448-.352.784-.86 1.008-1.524l2.952.66c-.4 1.32-1.1 2.336-2.1 3.048-1 .704-2.224 1.056-3.672 1.056zm8.152-.36l.024-17.28h2.928v10.56l4.74-6.24h3.612l-5.028 6.48 5.46 6.48h-3.828l-4.956-6.24V26h-2.952zm19.154.36c-1.224 0-2.304-.26-3.24-.78a5.68 5.68 0 01-2.196-2.196c-.52-.936-.78-2.016-.78-3.24v-5.568c0-1.224.26-2.304.78-3.24a5.597 5.597 0 012.196-2.184c.936-.528 2.016-.792 3.24-.792 1.224 0 2.3.264 3.228.792a5.597 5.597 0 012.196 2.184c.528.936.792 2.016.792 3.24v5.568c0 1.224-.264 2.304-.792 3.24a5.68 5.68 0 01-2.196 2.196c-.928.52-2.004.78-3.228.78zm0-2.748c.608 0 1.16-.144 1.656-.432a3.313 3.313 0 001.176-1.176 3.238 3.238 0 00.432-1.656V14.36c0-.616-.144-1.168-.432-1.656a3.19 3.19 0 00-1.176-1.176 3.17 3.17 0 00-1.656-.444 3.17 3.17 0 00-1.656.444 3.19 3.19 0 00-1.176 1.176 3.196 3.196 0 00-.432 1.656v5.988c0 .608.144 1.16.432 1.656.288.488.68.88 1.176 1.176a3.238 3.238 0 001.656.432zM94.961 26V13.04h2.556v3.156l-.312-.408c.16-.432.372-.824.636-1.176a3.54 3.54 0 01.972-.888c.32-.216.672-.384 1.056-.504a4.744 4.744 0 011.2-.228 4.88 4.88 0 011.188.048v2.7c-.384-.112-.828-.148-1.332-.108a3.05 3.05 0 00-1.344.42c-.4.216-.728.492-.984.828-.248.336-.432.72-.552 1.152-.12.424-.18.884-.18 1.38V26h-2.904zm12.906.36c-.936 0-1.728-.176-2.376-.528-.648-.36-1.14-.836-1.476-1.428a3.968 3.968 0 01-.492-1.956c0-.624.104-1.184.312-1.68.208-.504.528-.936.96-1.296.432-.368.992-.668 1.68-.9.52-.168 1.128-.32 1.824-.456.704-.136 1.464-.26 2.28-.372.824-.12 1.684-.248 2.58-.384l-1.032.588c.008-.896-.192-1.556-.6-1.98-.408-.424-1.096-.636-2.064-.636-.584 0-1.148.136-1.692.408-.544.272-.924.74-1.14 1.404l-2.64-.828c.32-1.096.928-1.976 1.824-2.64.904-.664 2.12-.996 3.648-.996 1.152 0 2.164.188 3.036.564a3.77 3.77 0 011.956 1.848c.232.456.372.924.42 1.404.048.472.072.988.072 1.548V26h-2.532v-2.808l.42.456c-.584.936-1.268 1.624-2.052 2.064-.776.432-1.748.648-2.916.648zm.576-2.304c.656 0 1.216-.116 1.68-.348.464-.232.832-.516 1.104-.852.28-.336.468-.652.564-.948.152-.368.236-.788.252-1.26.024-.48.036-.868.036-1.164l.888.264c-.872.136-1.62.256-2.244.36-.624.104-1.16.204-1.608.3-.448.088-.844.188-1.188.3-.336.12-.62.26-.852.42a1.86 1.86 0 00-.54.552 1.44 1.44 0 00-.18.732c0 .32.08.604.24.852.16.24.392.432.696.576.312.144.696.216 1.152.216z" fill="#fff"/><path d="M82 24l7-14" stroke="#fff" stroke-width="3"/></svg>