<svg width="215" height="51" fill="none" xmlns="http://www.w3.org/2000/svg"><path d="M54.719 9.932c3.51.783 7.857 1.755 7.857 6.129 0 4.32-3.267 7.344-9.558 7.344-5.238 0-8.505-3.051-8.505-6.966v-.432h5.184v.432c0 1.89 2.025 2.538 4.05 2.538 1.917 0 3.861-.567 3.861-2.538 0-1.62-2.322-2.16-5.022-2.808-3.429-.81-7.722-1.836-7.722-5.913 0-4.239 3.537-6.993 8.991-6.993 5.022 0 8.532 2.889 8.532 6.993v.432h-4.779v-.432c0-1.647-2.16-2.646-4.239-2.646-1.404 0-3.456.675-3.456 2.241 0 1.539 2.214 2.052 4.806 2.619zm8.665-8.775h20.061v4.374h-7.614V23h-4.833V5.531h-7.614V1.157zm35.095 13.5L103.636 23h-5.562l-4.32-7.857h-3.996V23h-4.833V1.157h10.098c4.752 0 7.668 3.429 7.668 7.047 0 2.781-1.647 5.481-4.212 6.453zm-8.721-3.753H95.4c1.674 0 3.05-1.026 3.05-2.7 0-1.701-1.376-2.808-3.05-2.808h-5.643v5.508zM118.732 23l-1.701-4.509h-8.046L107.284 23h-4.59l8.019-21.843h5.076L123.349 23h-4.617zm-8.235-8.532h5.022l-2.511-6.642-2.511 6.642zm9.577-13.311h20.061v4.374h-7.614V23h-4.833V5.531h-7.614V1.157zm21.54 0h15.606v4.374h-10.881v3.888l9.072.054v4.347l-9.072-.027v4.86h10.881V23h-15.606V1.157zm28.968 11.097h8.937v10.719h-2.943l-.405-1.917c-1.836 1.566-4.212 2.349-6.804 2.349-5.697 0-10.395-3.888-10.395-11.34 0-7.29 4.698-11.367 10.395-11.367 5.022 0 8.964 2.997 10.071 8.181h-4.86c-.864-2.484-2.808-3.645-5.211-3.645-3.213 0-5.697 2.187-5.697 6.831 0 4.698 2.457 6.831 5.697 6.831 2.268 0 4.185-1.053 5.13-3.402h-3.915v-3.24zM185.99 1.157V23h-4.482V1.157h4.482zm17.49 13.041h4.941c-.837 6.102-5.157 9.207-10.287 9.207-5.697 0-10.395-3.888-10.395-11.34 0-7.29 4.698-11.367 10.395-11.367 5.157 0 9.153 3.159 10.179 8.586h-5.049c-.567-2.727-2.619-4.05-5.13-4.05-3.213 0-5.697 2.16-5.697 6.831 0 4.698 2.457 6.831 5.697 6.831 2.727 0 4.995-1.512 5.346-4.698z" fill="#F51B55"/><path d="M60.227 40.198h4.941c-.837 6.102-5.157 9.207-10.287 9.207-5.697 0-10.395-3.888-10.395-11.34 0-7.29 4.698-11.367 10.395-11.367 5.157 0 9.153 3.159 10.179 8.586h-5.049c-.567-2.727-2.619-4.05-5.13-4.05-3.213 0-5.697 2.16-5.697 6.831 0 4.698 2.457 6.831 5.697 6.831 2.727 0 4.995-1.512 5.346-4.698zm20.085.459L85.469 49h-5.562l-4.32-7.857H71.59V49h-4.833V27.157h10.098c4.752 0 7.668 3.429 7.668 7.047 0 2.781-1.647 5.481-4.212 6.453zm-8.721-3.753h5.643c1.674 0 3.05-1.026 3.05-2.7 0-1.701-1.376-2.808-3.05-2.808H71.59v5.508zm15.258-9.747h15.606v4.374h-10.88v3.888l9.071.054v4.347l-9.072-.027v4.86h10.881V49H86.849V27.157zM118.68 49l-1.701-4.509h-8.046L107.232 49h-4.59l8.019-21.843h5.076L123.297 49h-4.617zm-8.235-8.532h5.022l-2.511-6.642-2.511 6.642zm9.576-13.311h20.061v4.374h-7.614V49h-4.833V31.531h-7.614v-4.374zm26.312 0V49h-4.482V27.157h4.482zM159.774 49h-5.184l-7.209-21.843h4.59l5.211 15.768 5.238-15.768h4.59L159.774 49zm8.286-21.843h15.606v4.374h-10.881v3.888l9.072.054v4.347l-9.072-.027v4.86h10.881V49H168.06V27.157z" fill="#2F2F2F"/><mask id="a" style="mask-type:luminance" maskUnits="userSpaceOnUse" x="0" y="1" width="40" height="50"><path d="M40 1.956H0v48.485h40V1.956z" fill="#fff"/></mask><g mask="url(#a)"><path d="M15.742 27.788a7.76 7.76 0 00-3.165.653A9.226 9.226 0 009.904 30.2a8.553 8.553 0 00-1.843 2.54 6.988 6.988 0 00-.675 3.035c0 1.49.38 2.78 1.14 3.9.759 1.122 1.786 1.987 3.066 2.64 1.294.638 2.715.964 4.263.964 1.477 0 2.743-.227 3.812-.68 1.07-.455 1.97-1.05 2.701-1.802a8.435 8.435 0 001.717-2.483l4.544 3.958c-1.07 2.07-2.758 3.816-5.065 5.263-2.307 1.447-5.205 2.17-8.694 2.17-2.785 0-5.304-.581-7.555-1.759-2.25-1.177-4.037-2.78-5.345-4.837C.66 41.066 0 38.739 0 36.144c0-1.986.436-3.802 1.322-5.476a14.487 14.487 0 013.56-4.37A19.153 19.153 0 019.89 23.32a16.18 16.18 0 015.712-1.177l.14 5.645zm14.56-5.645h6.57l-7.371 18.895c-1.871-.752-3.756-1.518-5.627-2.27 2.138-5.547 4.29-11.079 6.429-16.625z" fill="#F51B55"/><path d="M39.152 49.024h-8.244l-20.75-27.875a153 153 0 01-1.38-2.227 15.307 15.307 0 01-1.406-3.064 10.576 10.576 0 01-.577-3.504c0-1.73.436-3.39 1.294-4.95.859-1.575 2.125-2.866 3.77-3.902 1.66-1.035 3.715-1.546 6.177-1.546 2.616 0 4.938.525 6.977 1.575 2.026 1.05 3.672 2.326 4.938 3.801L26.392 12.1c-1.266-1.234-2.504-2.227-3.686-2.98C21.525 8.383 20.356 8 19.203 8c-1.632 0-2.884.497-3.742 1.49-.858.993-1.294 2.142-1.294 3.46 0 .668.155 1.363.464 2.1.31.738.62 1.39.957 1.958.323.553.534.922.619 1.078l22.945 30.939z" fill="#F51B55"/><path d="M11.381 22.807c-.928.283-2.026.695-3.193 1.305a19.07 19.07 0 00-2.35 1.447c1.238 1.66 2.476 3.333 3.714 4.993a8.782 8.782 0 012.167-1.702 8.639 8.639 0 013.376-1.05 572.027 572.027 0 00-3.714-4.993z" fill="#BD1441"/><path d="M23.622 39.222a8.134 8.134 0 01-1.955 2.198 8.223 8.223 0 01-2.898 1.476c1.294 1.716 2.588 3.433 3.897 5.15a16.6 16.6 0 002.785-1.888 16.447 16.447 0 001.927-1.915 578.962 578.962 0 01-3.756-5.021z" fill="#AD133C"/></g></svg>