<svg width="181" height="169" viewBox="0 0 181 169" fill="none" xmlns="http://www.w3.org/2000/svg">
<path fill-rule="evenodd" clip-rule="evenodd" d="M2.77201 107.616C-1.20133 90.8483 -1.34491 72.943 5.26068 57.0292C11.6009 41.7547 25.3294 31.5687 38.4924 21.5604C51.1806 11.9131 64.2479 1.37414 80.1355 0.0992422C95.7926 -1.15715 108.999 9.84074 123.936 14.704C141.822 20.5276 165.999 15.973 176.608 31.5098C187.12 46.9042 174.903 67.649 172.732 86.163C170.788 102.737 172.887 120.078 164.529 134.519C155.878 149.465 142.338 162.412 125.775 167.292C109.827 171.991 93.8686 162.638 77.4232 160.185C60.5796 157.674 41.8568 162.507 27.9312 152.701C13.5707 142.588 6.8223 124.709 2.77201 107.616Z" fill="white"/>
<path d="M71.8271 117.743C71.9938 111.243 76.1271 98.2432 91.3271 98.2432C106.527 98.2432 110.66 111.243 110.827 117.743" stroke="black" stroke-width="3" stroke-linecap="round"/>
<path d="M68.8322 90.7265C67.6219 90.9091 66.5152 90.8132 65.5121 90.4387C64.5078 90.0562 63.6747 89.4416 63.013 88.5949C62.3591 87.747 61.9409 86.7179 61.7583 85.5076L60.9275 80.0019C60.7448 78.7916 60.8408 77.6849 61.2153 76.6818C61.5977 75.6775 62.2129 74.8484 63.0609 74.1946C63.9076 73.5328 64.9361 73.1106 66.1464 72.928C67.3567 72.7454 68.4601 72.8459 69.4565 73.2295C70.4596 73.604 71.292 74.2146 71.9537 75.0614C72.6155 75.9081 73.0377 76.9366 73.2203 78.1469L74.0511 83.6526C74.2337 84.8629 74.1338 85.9702 73.7514 86.9745C73.369 87.9788 72.7544 88.8118 71.9077 89.4736C71.0676 90.1262 70.0425 90.5439 68.8322 90.7265ZM68.4221 88.0093C69.0233 87.9185 69.5477 87.6938 69.9952 87.335C70.4414 86.9683 70.7705 86.5222 70.9825 85.9967C71.1933 85.4633 71.2533 84.896 71.1626 84.2948L70.2691 78.3738C70.1772 77.7647 69.9525 77.2404 69.5949 76.8008C69.2361 76.3533 68.79 76.0242 68.2566 75.8134C67.722 75.5948 67.1541 75.5308 66.5529 75.6215C65.9517 75.7122 65.4279 75.9409 64.9816 76.3076C64.5342 76.6664 64.205 77.1125 63.9943 77.6459C63.7823 78.1714 63.7223 78.7387 63.8142 79.3478L64.7077 85.2688C64.7984 85.87 65.0231 86.3943 65.3819 86.8418C65.7395 87.2814 66.1856 87.6105 66.7202 87.8292C67.2536 88.0399 67.8209 88.1 68.4221 88.0093Z" fill="black"/>
<path d="M65.1377 88.897L69.9705 74.0093" stroke="black" stroke-width="3"/>
<path d="M115.005 92.9955C113.822 92.6787 112.846 92.148 112.077 91.4035C111.309 90.6512 110.792 89.7547 110.524 88.7139C110.264 87.6753 110.292 86.5648 110.609 85.3825L112.05 80.0042C112.367 78.8219 112.898 77.846 113.642 77.0765C114.395 76.309 115.29 75.7953 116.329 75.5353C117.37 75.2675 118.481 75.292 119.663 75.6088C120.846 75.9256 121.817 76.4591 122.576 77.2093C123.346 77.9538 123.865 78.8465 124.132 79.8872C124.4 80.928 124.376 82.0395 124.059 83.2218L122.618 88.6001C122.301 89.7824 121.766 90.7573 121.014 91.5247C120.262 92.2922 119.365 92.8098 118.325 93.0775C117.294 93.3396 116.187 93.3123 115.005 92.9955ZM115.716 90.3411C116.303 90.4985 116.874 90.5023 117.427 90.3524C117.983 90.1949 118.463 89.9177 118.868 89.5209C119.274 89.1163 119.556 88.6204 119.713 88.0331L121.263 82.2492C121.423 81.6541 121.426 81.0837 121.275 80.5378C121.125 79.9841 120.848 79.504 120.443 79.0975C120.041 78.6832 119.546 78.3974 118.958 78.24C118.371 78.0826 117.8 78.0827 117.244 78.2403C116.69 78.3901 116.21 78.6673 115.804 79.0718C115.399 79.4687 115.117 79.9646 114.958 80.5596L113.408 86.3436C113.251 86.9308 113.247 87.5013 113.397 88.0549C113.548 88.6008 113.826 89.0809 114.228 89.4952C114.633 89.9018 115.129 90.1838 115.716 90.3411Z" fill="black"/>
<path d="M112.35 89.8413L122.735 78.1301" stroke="black" stroke-width="3"/>
</svg>
