<svg width="12" height="12" viewBox="0 0 12 12" fill="none" xmlns="http://www.w3.org/2000/svg">
<path d="M7.39636 0.5C12.6718 4.18814 10.961 8.24086 10.961 8.24086C10.961 8.24086 12.4595 9.97807 11.8573 11.5C11.8573 11.5 11.2355 10.4369 10.2036 10.4369C9.20608 10.4369 8.61584 11.5 6.60213 11.5C2.12321 11.5 0 7.65471 0 7.65471C4.03642 10.389 6.79412 8.45143 6.79412 8.45143C4.97166 7.36871 1.10623 2.18379 1.10623 2.18379C4.47592 5.131 5.93014 5.90493 5.93014 5.90493C5.05565 5.1695 2.61895 1.56543 2.61895 1.56543C4.56891 3.59179 8.44484 6.41721 8.44484 6.41721C9.55632 3.29479 7.39636 0.5 7.39636 0.5Z" fill="#FF5722"/>
</svg>
