<svg width="22" height="22" viewBox="0 0 22 22" fill="none" xmlns="http://www.w3.org/2000/svg">
<path d="M15.6827 12.0004L11.6827 21.0004C10.8871 21.0004 10.124 20.6843 9.56139 20.1217C8.99878 19.5591 8.68271 18.796 8.68271 18.0004V14.0004H3.02271C2.7328 14.0036 2.44564 13.9439 2.18114 13.8251C1.91663 13.7064 1.68109 13.5316 1.49085 13.3128C1.30061 13.0941 1.1602 12.8365 1.07937 12.5581C0.998534 12.2797 0.979201 11.987 1.02271 11.7004L2.40271 2.70036C2.47503 2.22346 2.71727 1.78875 3.0848 1.47636C3.45233 1.16396 3.92038 0.994909 4.40271 1.00036H15.6827M15.6827 12.0004V1.00036M15.6827 12.0004H18.3527C18.9187 12.0104 19.4686 11.8122 19.8981 11.4435C20.3276 11.0749 20.6068 10.5613 20.6827 10.0004V3.00036C20.6068 2.43942 20.3276 1.92586 19.8981 1.55718C19.4686 1.1885 18.9187 0.990352 18.3527 1.00036H15.6827" stroke="#A6A6A6" stroke-width="2" stroke-linecap="round" stroke-linejoin="round"/>
</svg>
