<svg width="22" height="23" viewBox="0 0 22 23" fill="none" xmlns="http://www.w3.org/2000/svg">
<path d="M8.68268 14.6973L8.68268 18.6973C8.68268 19.4929 8.99875 20.256 9.56136 20.8186C10.124 21.3812 10.887 21.6973 11.6827 21.6973L15.6827 12.6973L15.6827 1.69727L4.40268 1.69726C3.92035 1.69181 3.4523 1.86086 3.08477 2.17326C2.71725 2.48566 2.475 2.92036 2.40268 3.39726L1.02268 12.3973C0.979172 12.6839 0.998504 12.9766 1.07934 13.255C1.16017 13.5334 1.30058 13.791 1.49082 14.0097C1.68106 14.2285 1.9166 14.4033 2.18111 14.522C2.44562 14.6408 2.73277 14.7005 3.02268 14.6973L8.68268 14.6973ZM15.6827 1.69727L18.6827 1.69727C19.2131 1.69727 19.7218 1.90798 20.0969 2.28305C20.472 2.65813 20.6827 3.16683 20.6827 3.69727L20.6827 10.6973C20.6827 11.2277 20.472 11.7364 20.0969 12.1115C19.7218 12.4866 19.2131 12.6973 18.6827 12.6973L15.6827 12.6973" fill="#484848"/>
<path d="M15.6827 12.6973L11.6827 21.6973C10.887 21.6973 10.124 21.3812 9.56136 20.8186C8.99875 20.256 8.68268 19.4929 8.68268 18.6973L8.68268 14.6973L3.02268 14.6973C2.73277 14.7005 2.44562 14.6408 2.18111 14.522C1.9166 14.4033 1.68106 14.2285 1.49082 14.0097C1.30058 13.791 1.16017 13.5334 1.07934 13.255C0.998504 12.9766 0.979172 12.6839 1.02268 12.3973L2.40268 3.39726C2.475 2.92036 2.71725 2.48566 3.08477 2.17326C3.4523 1.86086 3.92035 1.69181 4.40268 1.69726L15.6827 1.69727M15.6827 12.6973L15.6827 1.69727M15.6827 12.6973L18.6827 12.6973C19.2131 12.6973 19.7218 12.4866 20.0969 12.1115C20.472 11.7364 20.6827 11.2277 20.6827 10.6973L20.6827 3.69727C20.6827 3.16683 20.472 2.65813 20.0969 2.28305C19.7218 1.90798 19.2131 1.69727 18.6827 1.69727L15.6827 1.69727" stroke="#484848" stroke-width="2" stroke-linecap="round" stroke-linejoin="round"/>
<mask id="mask0_2066_19" style="mask-type:alpha" maskUnits="userSpaceOnUse" x="0" y="0" width="22" height="23">
<path d="M8.68268 14.6973L8.68268 18.6973C8.68268 19.4929 8.99875 20.256 9.56136 20.8186C10.124 21.3812 10.887 21.6973 11.6827 21.6973L15.6827 12.6973L15.6827 1.69727L4.40268 1.69726C3.92035 1.69181 3.4523 1.86086 3.08477 2.17326C2.71725 2.48566 2.475 2.92036 2.40268 3.39726L1.02268 12.3973C0.979172 12.6839 0.998504 12.9766 1.07934 13.255C1.16017 13.5334 1.30058 13.791 1.49082 14.0097C1.68106 14.2285 1.9166 14.4033 2.18111 14.522C2.44562 14.6408 2.73277 14.7005 3.02268 14.6973L8.68268 14.6973ZM15.6827 1.69727L18.6827 1.69727C19.2131 1.69727 19.7218 1.90798 20.0969 2.28305C20.472 2.65813 20.6827 3.16683 20.6827 3.69727L20.6827 10.6973C20.6827 11.2277 20.472 11.7364 20.0969 12.1115C19.7218 12.4866 19.2131 12.6973 18.6827 12.6973L15.6827 12.6973" fill="#484848"/>
<path d="M15.6827 12.6973L11.6827 21.6973C10.887 21.6973 10.124 21.3812 9.56136 20.8186C8.99875 20.256 8.68268 19.4929 8.68268 18.6973L8.68268 14.6973L3.02268 14.6973C2.73277 14.7005 2.44562 14.6408 2.18111 14.522C1.9166 14.4033 1.68106 14.2285 1.49082 14.0097C1.30058 13.791 1.16017 13.5334 1.07934 13.255C0.998504 12.9766 0.979172 12.6839 1.02268 12.3973L2.40268 3.39726C2.475 2.92036 2.71725 2.48566 3.08477 2.17326C3.4523 1.86086 3.92035 1.69181 4.40268 1.69726L15.6827 1.69727M15.6827 12.6973L15.6827 1.69727M15.6827 12.6973L18.6827 12.6973C19.2131 12.6973 19.7218 12.4866 20.0969 12.1115C20.472 11.7364 20.6827 11.2277 20.6827 10.6973L20.6827 3.69727C20.6827 3.16683 20.472 2.65813 20.0969 2.28305C19.7218 1.90798 19.2131 1.69727 18.6827 1.69727L15.6827 1.69727" stroke="#484848" stroke-width="2" stroke-linecap="round" stroke-linejoin="round"/>
</mask>
<g mask="url(#mask0_2066_19)">
<path d="M15.663 20.7871L15.663 -2.80274" stroke="white" stroke-width="2"/>
</g>
</svg>
