<svg width="22" height="22" viewBox="0 0 22 22" fill="none" xmlns="http://www.w3.org/2000/svg">
<path d="M6.00006 9.99964L10.0001 0.999639C10.7957 0.999638 11.5588 1.31571 12.1214 1.87832C12.684 2.44093 13.0001 3.20399 13.0001 3.99964L13.0001 7.99964L18.6601 7.99964C18.95 7.99636 19.2371 8.05614 19.5016 8.17486C19.7661 8.29357 20.0017 8.46837 20.1919 8.68715C20.3822 8.90593 20.5226 9.16346 20.6034 9.44189C20.6842 9.72032 20.7036 10.013 20.6601 10.2996L19.2801 19.2996C19.2077 19.7765 18.9655 20.2112 18.598 20.5236C18.2304 20.836 17.7624 21.0051 17.2801 20.9996L6.00006 20.9996M6.00006 9.99964L6.00006 20.9996M6.00006 9.99964L3.33006 9.99964C2.7641 9.98963 2.21416 10.1878 1.78465 10.5565C1.35513 10.9251 1.07594 11.4387 1.00006 11.9996L1.00006 18.9996C1.07594 19.5606 1.35513 20.0741 1.78465 20.4428C2.21416 20.8115 2.7641 21.0096 3.33006 20.9996L6.00006 20.9996" stroke="#A6A6A6" stroke-width="2" stroke-linecap="round" stroke-linejoin="round"/>
</svg>
