<svg width="22" height="22" viewBox="0 0 22 22" fill="none" xmlns="http://www.w3.org/2000/svg">
<path d="M13 8V4C13 3.20435 12.684 2.44129 12.1214 1.87868C11.5587 1.31607 10.7957 1 10 1L6.00003 10V21H17.28C17.7624 21.0055 18.2304 20.8364 18.5979 20.524C18.9655 20.2116 19.2077 19.7769 19.28 19.3L20.66 10.3C20.7035 10.0134 20.6842 9.72068 20.6034 9.44225C20.5225 9.16382 20.3821 8.90629 20.1919 8.68751C20.0016 8.46873 19.7661 8.29393 19.5016 8.17522C19.2371 8.0565 18.9499 7.99672 18.66 8H13ZM6.00003 21H3.00003C2.4696 21 1.96089 20.7893 1.58582 20.4142C1.21074 20.0391 1.00003 19.5304 1.00003 19V12C1.00003 11.4696 1.21074 10.9609 1.58582 10.5858C1.96089 10.2107 2.4696 10 3.00003 10H6.00003" fill="#484848"/>
<path d="M6.00003 10L10 1C10.7957 1 11.5587 1.31607 12.1214 1.87868C12.684 2.44129 13 3.20435 13 4V8H18.66C18.9499 7.99672 19.2371 8.0565 19.5016 8.17522C19.7661 8.29393 20.0016 8.46873 20.1919 8.68751C20.3821 8.90629 20.5225 9.16382 20.6034 9.44225C20.6842 9.72068 20.7035 10.0134 20.66 10.3L19.28 19.3C19.2077 19.7769 18.9655 20.2116 18.5979 20.524C18.2304 20.8364 17.7624 21.0055 17.28 21H6.00003M6.00003 10V21M6.00003 10H3.00003C2.4696 10 1.96089 10.2107 1.58582 10.5858C1.21074 10.9609 1.00003 11.4696 1.00003 12V19C1.00003 19.5304 1.21074 20.0391 1.58582 20.4142C1.96089 20.7893 2.4696 21 3.00003 21H6.00003" stroke="#484848" stroke-width="2" stroke-linecap="round" stroke-linejoin="round"/>
<mask id="mask0_2065_6" style="mask-type:alpha" maskUnits="userSpaceOnUse" x="0" y="0" width="22" height="22">
<path d="M13 8V4C13 3.20435 12.684 2.44129 12.1214 1.87868C11.5587 1.31607 10.7957 1 10 1L6.00003 10V21H17.28C17.7624 21.0055 18.2304 20.8364 18.5979 20.524C18.9655 20.2116 19.2077 19.7769 19.28 19.3L20.66 10.3C20.7035 10.0134 20.6842 9.72068 20.6034 9.44225C20.5225 9.16382 20.3821 8.90629 20.1919 8.68751C20.0016 8.46873 19.7661 8.29393 19.5016 8.17522C19.2371 8.0565 18.9499 7.99672 18.66 8H13ZM6.00003 21H3.00003C2.4696 21 1.96089 20.7893 1.58582 20.4142C1.21074 20.0391 1.00003 19.5304 1.00003 19V12C1.00003 11.4696 1.21074 10.9609 1.58582 10.5858C1.96089 10.2107 2.4696 10 3.00003 10H6.00003" fill="#484848"/>
<path d="M6.00003 10L10 1C10.7957 1 11.5587 1.31607 12.1214 1.87868C12.684 2.44129 13 3.20435 13 4V8H18.66C18.9499 7.99672 19.2371 8.0565 19.5016 8.17522C19.7661 8.29393 20.0016 8.46873 20.1919 8.68751C20.3821 8.90629 20.5225 9.16382 20.6034 9.44225C20.6842 9.72068 20.7035 10.0134 20.66 10.3L19.28 19.3C19.2077 19.7769 18.9655 20.2116 18.5979 20.524C18.2304 20.8364 17.7624 21.0055 17.28 21H6.00003M6.00003 10V21M6.00003 10H3.00003C2.4696 10 1.96089 10.2107 1.58582 10.5858C1.21074 10.9609 1.00003 11.4696 1.00003 12V19C1.00003 19.5304 1.21074 20.0391 1.58582 20.4142C1.96089 20.7893 2.4696 21 3.00003 21H6.00003" stroke="#484848" stroke-width="2" stroke-linecap="round" stroke-linejoin="round"/>
</mask>
<g mask="url(#mask0_2065_6)">
<path d="M6.01968 1.91016L6.01968 25.5" stroke="white" stroke-width="2"/>
</g>
</svg>
