<svg width="117" height="33" viewBox="0 0 117 33" fill="none" xmlns="http://www.w3.org/2000/svg">
<path d="M10.932 28.52C9.604 28.52 8.388 28.304 7.284 27.872C6.188 27.448 5.236 26.844 4.428 26.06C3.628 25.284 3.008 24.368 2.568 23.312C2.136 22.256 1.92 21.104 1.92 19.856C1.92 18.304 2.152 16.944 2.616 15.776C3.088 14.608 3.736 13.636 4.56 12.86C5.392 12.076 6.344 11.492 7.416 11.108C8.496 10.716 9.636 10.52 10.836 10.52C12.364 10.52 13.704 10.752 14.856 11.216C16.008 11.68 16.968 12.316 17.736 13.124C18.504 13.924 19.076 14.84 19.452 15.872C19.836 16.904 20.02 17.992 20.004 19.136C19.98 20.704 19.672 21.92 19.08 22.784C18.488 23.648 17.512 24.08 16.152 24.08C15.504 24.08 14.884 23.928 14.292 23.624C13.708 23.32 13.304 22.876 13.08 22.292L13.836 22.304C13.492 22.936 13.032 23.38 12.456 23.636C11.88 23.884 11.292 24.008 10.692 24.008C9.844 24.008 9.096 23.824 8.448 23.456C7.8 23.08 7.288 22.56 6.912 21.896C6.544 21.232 6.36 20.46 6.36 19.58C6.36 18.676 6.552 17.892 6.936 17.228C7.328 16.564 7.856 16.052 8.52 15.692C9.184 15.332 9.924 15.152 10.74 15.152C11.26 15.152 11.804 15.26 12.372 15.476C12.94 15.684 13.38 15.968 13.692 16.328L13.2 16.976V15.488H14.976L14.94 20.012C14.94 20.628 15.048 21.08 15.264 21.368C15.48 21.648 15.784 21.788 16.176 21.788C16.592 21.788 16.896 21.672 17.088 21.44C17.28 21.208 17.404 20.896 17.46 20.504C17.524 20.112 17.56 19.668 17.568 19.172C17.584 17.916 17.384 16.88 16.968 16.064C16.56 15.24 16.024 14.588 15.36 14.108C14.696 13.628 13.98 13.288 13.212 13.088C12.452 12.888 11.728 12.788 11.04 12.788C9.96 12.788 8.996 12.956 8.148 13.292C7.308 13.62 6.6 14.092 6.024 14.708C5.448 15.324 5.016 16.06 4.728 16.916C4.44 17.772 4.312 18.728 4.344 19.784C4.376 20.808 4.556 21.72 4.884 22.52C5.212 23.32 5.672 24 6.264 24.56C6.856 25.112 7.552 25.532 8.352 25.82C9.16 26.108 10.056 26.252 11.04 26.252C11.536 26.252 12.028 26.204 12.516 26.108C13.012 26.012 13.472 25.876 13.896 25.7L14.652 27.836C14.076 28.06 13.472 28.228 12.84 28.34C12.216 28.46 11.58 28.52 10.932 28.52ZM10.86 21.716C11.404 21.716 11.864 21.56 12.24 21.248C12.624 20.936 12.816 20.38 12.816 19.58C12.816 18.876 12.656 18.344 12.336 17.984C12.016 17.616 11.552 17.432 10.944 17.432C10.216 17.432 9.672 17.628 9.312 18.02C8.96 18.404 8.784 18.924 8.784 19.58C8.784 20.244 8.964 20.768 9.324 21.152C9.692 21.528 10.204 21.716 10.86 21.716ZM32.5581 26V19.76C32.5581 19.352 32.5301 18.9 32.4741 18.404C32.4181 17.908 32.2861 17.432 32.0781 16.976C31.8781 16.512 31.5741 16.132 31.1661 15.836C30.7661 15.54 30.2221 15.392 29.5341 15.392C29.1661 15.392 28.8021 15.452 28.4421 15.572C28.0821 15.692 27.7541 15.9 27.4581 16.196C27.1701 16.484 26.9381 16.884 26.7621 17.396C26.5861 17.9 26.4981 18.548 26.4981 19.34L24.7821 18.608C24.7821 17.504 24.9941 16.504 25.4181 15.608C25.8501 14.712 26.4821 14 27.3141 13.472C28.1461 12.936 29.1701 12.668 30.3861 12.668C31.3461 12.668 32.1381 12.828 32.7621 13.148C33.3861 13.468 33.8821 13.876 34.2501 14.372C34.6181 14.868 34.8901 15.396 35.0661 15.956C35.2421 16.516 35.3541 17.048 35.4021 17.552C35.4581 18.048 35.4861 18.452 35.4861 18.764V26H32.5581ZM23.5701 26V8.72H26.1501V17.816H26.4981V26H23.5701ZM42.2415 26.36C41.3055 26.36 40.5135 26.184 39.8655 25.832C39.2175 25.472 38.7255 24.996 38.3895 24.404C38.0615 23.812 37.8975 23.16 37.8975 22.448C37.8975 21.824 38.0015 21.264 38.2095 20.768C38.4175 20.264 38.7375 19.832 39.1695 19.472C39.6015 19.104 40.1615 18.804 40.8495 18.572C41.3695 18.404 41.9775 18.252 42.6735 18.116C43.3775 17.98 44.1375 17.856 44.9535 17.744C45.7775 17.624 46.6375 17.496 47.5335 17.36L46.5015 17.948C46.5095 17.052 46.3095 16.392 45.9015 15.968C45.4935 15.544 44.8055 15.332 43.8375 15.332C43.2535 15.332 42.6895 15.468 42.1455 15.74C41.6015 16.012 41.2215 16.48 41.0055 17.144L38.3655 16.316C38.6855 15.22 39.2935 14.34 40.1895 13.676C41.0935 13.012 42.3095 12.68 43.8375 12.68C44.9895 12.68 46.0015 12.868 46.8735 13.244C47.7535 13.62 48.4055 14.236 48.8295 15.092C49.0615 15.548 49.2015 16.016 49.2495 16.496C49.2975 16.968 49.3215 17.484 49.3215 18.044V26H46.7895V23.192L47.2095 23.648C46.6255 24.584 45.9415 25.272 45.1575 25.712C44.3815 26.144 43.4095 26.36 42.2415 26.36ZM42.8175 24.056C43.4735 24.056 44.0335 23.94 44.4975 23.708C44.9615 23.476 45.3295 23.192 45.6015 22.856C45.8815 22.52 46.0695 22.204 46.1655 21.908C46.3175 21.54 46.4015 21.12 46.4175 20.648C46.4415 20.168 46.4535 19.78 46.4535 19.484L47.3415 19.748C46.4695 19.884 45.7215 20.004 45.0975 20.108C44.4735 20.212 43.9375 20.312 43.4895 20.408C43.0415 20.496 42.6455 20.596 42.3015 20.708C41.9655 20.828 41.6815 20.968 41.4495 21.128C41.2175 21.288 41.0375 21.472 40.9095 21.68C40.7895 21.888 40.7295 22.132 40.7295 22.412C40.7295 22.732 40.8095 23.016 40.9695 23.264C41.1295 23.504 41.3615 23.696 41.6655 23.84C41.9775 23.984 42.3615 24.056 42.8175 24.056ZM58.0736 26.36C56.7376 26.36 55.5976 26.064 54.6536 25.472C53.7096 24.872 52.9856 24.056 52.4816 23.024C51.9856 21.992 51.7336 20.824 51.7256 19.52C51.7336 18.192 51.9936 17.016 52.5056 15.992C53.0256 14.96 53.7616 14.152 54.7136 13.568C55.6656 12.976 56.7976 12.68 58.1096 12.68C59.5816 12.68 60.8256 13.052 61.8416 13.796C62.8656 14.532 63.5336 15.54 63.8456 16.82L60.9656 17.6C60.7416 16.904 60.3696 16.364 59.8496 15.98C59.3296 15.588 58.7376 15.392 58.0736 15.392C57.3216 15.392 56.7016 15.572 56.2136 15.932C55.7256 16.284 55.3656 16.772 55.1336 17.396C54.9016 18.02 54.7856 18.728 54.7856 19.52C54.7856 20.752 55.0616 21.748 55.6136 22.508C56.1656 23.268 56.9856 23.648 58.0736 23.648C58.8416 23.648 59.4456 23.472 59.8856 23.12C60.3336 22.768 60.6696 22.26 60.8936 21.596L63.8456 22.256C63.4456 23.576 62.7456 24.592 61.7456 25.304C60.7456 26.008 59.5216 26.36 58.0736 26.36ZM66.2263 26L66.2503 8.72H69.1783V19.28L73.9183 13.04H77.5303L72.5023 19.52L77.9623 26H74.1343L69.1783 19.76V26H66.2263ZM85.3804 26.36C84.1564 26.36 83.0764 26.1 82.1404 25.58C81.2044 25.052 80.4724 24.32 79.9444 23.384C79.4244 22.448 79.1644 21.368 79.1644 20.144V14.576C79.1644 13.352 79.4244 12.272 79.9444 11.336C80.4724 10.4 81.2044 9.672 82.1404 9.152C83.0764 8.624 84.1564 8.36 85.3804 8.36C86.6044 8.36 87.6804 8.624 88.6084 9.152C89.5444 9.672 90.2764 10.4 90.8044 11.336C91.3324 12.272 91.5964 13.352 91.5964 14.576V20.144C91.5964 21.368 91.3324 22.448 90.8044 23.384C90.2764 24.32 89.5444 25.052 88.6084 25.58C87.6804 26.1 86.6044 26.36 85.3804 26.36ZM85.3804 23.612C85.9884 23.612 86.5404 23.468 87.0364 23.18C87.5324 22.884 87.9244 22.492 88.2124 22.004C88.5004 21.508 88.6444 20.956 88.6444 20.348V14.36C88.6444 13.744 88.5004 13.192 88.2124 12.704C87.9244 12.208 87.5324 11.816 87.0364 11.528C86.5404 11.232 85.9884 11.084 85.3804 11.084C84.7724 11.084 84.2204 11.232 83.7244 11.528C83.2284 11.816 82.8364 12.208 82.5484 12.704C82.2604 13.192 82.1164 13.744 82.1164 14.36V20.348C82.1164 20.956 82.2604 21.508 82.5484 22.004C82.8364 22.492 83.2284 22.884 83.7244 23.18C84.2204 23.468 84.7724 23.612 85.3804 23.612ZM94.9613 26V13.04H97.5173V16.196L97.2053 15.788C97.3653 15.356 97.5773 14.964 97.8413 14.612C98.1133 14.252 98.4373 13.956 98.8133 13.724C99.1333 13.508 99.4853 13.34 99.8693 13.22C100.261 13.092 100.661 13.016 101.069 12.992C101.477 12.96 101.873 12.976 102.257 13.04V15.74C101.873 15.628 101.429 15.592 100.925 15.632C100.429 15.672 99.9813 15.812 99.5813 16.052C99.1813 16.268 98.8533 16.544 98.5973 16.88C98.3493 17.216 98.1653 17.6 98.0453 18.032C97.9253 18.456 97.8653 18.916 97.8653 19.412V26H94.9613ZM107.867 26.36C106.931 26.36 106.139 26.184 105.491 25.832C104.843 25.472 104.351 24.996 104.015 24.404C103.687 23.812 103.523 23.16 103.523 22.448C103.523 21.824 103.627 21.264 103.835 20.768C104.043 20.264 104.363 19.832 104.795 19.472C105.227 19.104 105.787 18.804 106.475 18.572C106.995 18.404 107.603 18.252 108.299 18.116C109.003 17.98 109.763 17.856 110.579 17.744C111.403 17.624 112.263 17.496 113.159 17.36L112.127 17.948C112.135 17.052 111.935 16.392 111.527 15.968C111.119 15.544 110.431 15.332 109.463 15.332C108.879 15.332 108.315 15.468 107.771 15.74C107.227 16.012 106.847 16.48 106.631 17.144L103.991 16.316C104.311 15.22 104.919 14.34 105.815 13.676C106.719 13.012 107.935 12.68 109.463 12.68C110.615 12.68 111.627 12.868 112.499 13.244C113.379 13.62 114.031 14.236 114.455 15.092C114.687 15.548 114.827 16.016 114.875 16.496C114.923 16.968 114.947 17.484 114.947 18.044V26H112.415V23.192L112.835 23.648C112.251 24.584 111.567 25.272 110.783 25.712C110.007 26.144 109.035 26.36 107.867 26.36ZM108.443 24.056C109.099 24.056 109.659 23.94 110.123 23.708C110.587 23.476 110.955 23.192 111.227 22.856C111.507 22.52 111.695 22.204 111.791 21.908C111.943 21.54 112.027 21.12 112.043 20.648C112.067 20.168 112.079 19.78 112.079 19.484L112.967 19.748C112.095 19.884 111.347 20.004 110.723 20.108C110.099 20.212 109.563 20.312 109.115 20.408C108.667 20.496 108.271 20.596 107.927 20.708C107.591 20.828 107.307 20.968 107.075 21.128C106.843 21.288 106.663 21.472 106.535 21.68C106.415 21.888 106.355 22.132 106.355 22.412C106.355 22.732 106.435 23.016 106.595 23.264C106.755 23.504 106.987 23.696 107.291 23.84C107.603 23.984 107.987 24.056 108.443 24.056Z" fill="white"/>
<path d="M82 24L89 10" stroke="white" stroke-width="3"/>
</svg>
